<svg xmlns="http://www.w3.org/2000/svg" width="76" height="76" viewBox="0 0 76 76" fill="none"><circle cx="38" cy="38" r="38" fill="#20222E"></circle><path d="M54.7544 29.9095C54.201 29.7207 53.6429 29.5459 53.0806 29.385C53.1751 29.0013 53.262 28.6222 53.3392 28.2498C54.6063 22.1342 53.7779 17.2074 50.9486 15.5852C48.2359 14.0301 43.7994 15.6517 39.3189 19.5287C38.8773 19.9115 38.4455 20.3053 38.024 20.7098C37.7418 20.4408 37.4546 20.1771 37.1625 19.9187C32.4667 15.7733 27.7599 14.0261 24.9336 15.6529C22.2233 17.2129 21.4207 21.8444 22.5615 27.6403C22.675 28.2143 22.8031 28.7854 22.9458 29.3529C22.2795 29.5412 21.6367 29.7415 21.0214 29.9548C15.5159 31.8633 12 34.8541 12 37.9565C12 41.1606 15.7745 44.3744 21.5087 46.3231C21.9736 46.4804 22.4423 46.6262 22.9145 46.7603C22.7612 47.3716 22.625 47.987 22.5062 48.6059C21.4187 54.3012 22.268 58.8233 24.971 60.3733C27.7627 61.9741 32.4484 60.3289 37.0108 56.3634C37.3807 56.041 37.7426 55.7095 38.0959 55.3691C38.5524 55.8071 39.0211 56.2323 39.5015 56.6443C43.9211 60.4254 48.2858 61.9522 50.9862 60.398C53.7753 58.7926 54.6818 53.9346 53.5049 48.0242C53.4122 47.5612 53.3083 47.1004 53.1931 46.6424C53.5222 46.5455 53.8452 46.4457 54.16 46.3419C60.1213 44.3782 64 41.2034 64 37.9565C64 34.8428 60.3706 31.8318 54.7544 29.9095ZM53.4615 44.2455C53.1771 44.339 52.8854 44.4293 52.588 44.5172C51.9299 42.4456 51.0418 40.2431 49.9549 37.9672C50.9921 35.7456 51.846 33.5711 52.4857 31.5131C53.0176 31.6662 53.5338 31.8276 54.0314 31.9978C58.8435 33.645 61.7786 36.08 61.7786 37.9565C61.7786 39.9551 58.6087 42.5497 53.4615 44.2455ZM51.3258 48.4532C51.8462 51.0666 51.9204 53.4295 51.5757 55.2768C51.2661 56.9368 50.6433 58.0433 49.8731 58.4866C48.2345 59.4298 44.7299 58.2039 40.9504 54.9701C40.5036 54.587 40.0676 54.1917 39.6429 53.7845C41.1082 52.1913 42.5725 50.3391 44.0017 48.2819C46.5156 48.0602 48.8905 47.6974 51.0443 47.2024C51.148 47.6171 51.2419 48.0341 51.3258 48.4532ZM29.7279 58.3236C28.1269 58.8857 26.8517 58.9018 26.0808 58.4599C24.4406 57.5194 23.7587 53.8884 24.6888 49.0179C24.7994 48.4423 24.926 47.87 25.0685 47.3014C27.1984 47.7699 29.5561 48.1068 32.0759 48.31C33.5148 50.3229 35.0214 52.1731 36.5397 53.7932C36.2171 54.1037 35.8867 54.4062 35.5491 54.7004C33.5315 56.4539 31.5098 57.6979 29.7279 58.3236ZM22.2273 44.2332C19.6917 43.3714 17.5977 42.2516 16.1624 41.0295C14.8726 39.9314 14.2216 38.841 14.2216 37.9565C14.2216 36.0738 17.0444 33.6725 21.7526 32.0404C22.324 31.8425 22.922 31.6557 23.5426 31.4804C24.1934 33.5848 25.0469 35.7852 26.077 38.0102C25.0335 40.2681 24.1678 42.5036 23.5107 44.6329C23.0797 44.5101 22.6518 44.3769 22.2273 44.2332ZM24.7416 27.216C23.7644 22.2504 24.4134 18.5046 26.0467 17.5645C27.7863 16.5631 31.633 17.9908 35.6876 21.5704C35.952 21.8043 36.2121 22.043 36.4678 22.2863C34.957 23.8994 33.4642 25.7358 32.0381 27.7368C29.5925 27.9622 27.2514 28.3241 25.0991 28.809C24.9665 28.2812 24.8473 27.7498 24.7416 27.216ZM47.1721 32.723C46.6637 31.85 46.1365 30.9879 45.5908 30.1373C47.2499 30.346 48.8396 30.6229 50.3323 30.9613C49.8842 32.3896 49.3256 33.8827 48.6681 35.4136C48.1875 34.5069 47.6887 33.6099 47.1721 32.723ZM38.025 23.8648C39.0495 24.9686 40.0757 26.2007 41.0851 27.5377C39.0376 27.4416 36.9866 27.4412 34.9391 27.5365C35.9495 26.2118 36.9844 24.9813 38.025 23.8648ZM28.8192 32.7382C28.309 33.6179 27.8195 34.5093 27.3512 35.4118C26.7044 33.8863 26.1509 32.3864 25.699 30.9379C27.1826 30.6079 28.7647 30.3381 30.4133 30.1333C29.8615 30.989 29.33 31.8577 28.8192 32.7382ZM30.4606 45.9367C28.7574 45.7477 27.1515 45.4918 25.6683 45.1707C26.1273 43.6964 26.693 42.1645 27.3538 40.6064C27.824 41.5095 28.3155 42.4015 28.8279 43.2816C29.3548 44.1864 29.9004 45.0726 30.4606 45.9367ZM38.0863 52.2036C37.0333 51.0742 35.9832 49.8247 34.9576 48.4808C35.9533 48.5196 36.9683 48.5394 38 48.5394C39.0599 48.5394 40.1076 48.5158 41.1389 48.4701C40.1263 49.8382 39.104 51.0896 38.0863 52.2036ZM48.689 40.5268C49.3841 42.1021 49.97 43.6259 50.4351 45.075C48.9275 45.4171 47.2997 45.6926 45.5845 45.8972C46.1341 45.0309 46.6663 44.1538 47.1808 43.2664C47.704 42.3645 48.2068 41.451 48.689 40.5268ZM45.2566 42.1629C44.469 43.5234 43.637 44.858 42.7621 46.1648C41.1772 46.2764 39.5888 46.3318 38 46.331C36.3817 46.331 34.8077 46.2809 33.292 46.1831C32.3942 44.8794 31.5464 43.5424 30.7503 42.175C29.9579 40.8148 29.218 39.4252 28.5317 38.0092C29.2163 36.5928 29.9541 35.2025 30.7438 33.8413C31.5331 32.4797 32.374 31.1487 33.265 29.8506C34.8113 29.7342 36.3971 29.6736 37.9998 29.6736C39.6098 29.6736 41.1978 29.7348 42.7438 29.852C43.6258 31.1481 44.4615 32.4748 45.2493 33.8296C46.0416 35.1878 46.7892 36.5713 47.491 37.9779C46.7964 39.3988 46.0512 40.7947 45.2566 42.1629ZM49.8391 17.4986C51.5803 18.4971 52.2575 22.5236 51.1635 27.8039C51.0936 28.1408 51.0152 28.4839 50.9299 28.8319C48.7723 28.3367 46.4297 27.9685 43.977 27.7397C42.5482 25.7166 41.0676 23.8774 39.5813 22.2851C39.9709 21.9118 40.3696 21.5481 40.7773 21.1945C44.6164 17.8729 48.2044 16.5613 49.8391 17.4986ZM38 33.3396C40.5645 33.3396 42.6434 35.4067 42.6434 37.9565C42.6434 40.5062 40.5645 42.5733 38 42.5733C35.4355 42.5733 33.3566 40.5062 33.3566 37.9565C33.3566 35.4067 35.4355 33.3396 38 33.3396Z" fill="#5FD6F5"></path></svg>