<svg xmlns="http://www.w3.org/2000/svg" viewBox="0 0 158 140" fill="#61DBFB"><path d="M129.907 45.3768C128.226 44.8023 126.53 44.27 124.822 43.7805C125.109 42.6127 125.373 41.459 125.608 40.3255C129.458 21.7129 126.941 6.71817 118.344 1.78119C110.101 -2.95172 96.6213 1.98341 83.0074 13.7831C81.6657 14.9481 80.3537 16.1467 79.0728 17.3777C78.2153 16.5591 77.3427 15.7564 76.4553 14.97C62.1872 2.35344 47.8857 -2.96402 39.2982 1.9871C31.063 6.73476 28.6245 20.8308 32.0907 38.4705C32.4355 40.2175 32.8249 41.9555 33.2584 43.6828C31.234 44.2557 29.2806 44.8654 27.4111 45.5145C10.6829 51.3231 0 60.4256 0 69.8675C0 79.6191 11.4686 89.4003 28.8918 95.3312C30.3043 95.81 31.7286 96.2537 33.1633 96.6619C32.6974 98.5223 32.2837 100.395 31.9228 102.279C28.6184 119.612 31.1988 133.375 39.4117 138.093C47.8944 142.965 62.1316 137.957 75.9943 125.889C77.1184 124.907 78.2178 123.898 79.2913 122.863C80.6785 124.195 82.1027 125.49 83.5622 126.744C96.991 138.251 110.253 142.898 118.458 138.168C126.933 133.282 129.687 118.497 126.111 100.508C125.829 99.0992 125.514 97.697 125.164 96.3029C126.164 96.0079 127.145 95.7043 128.102 95.3883C146.215 89.4119 158 79.7494 158 69.8675C158 60.3912 146.972 51.2272 129.907 45.3768V45.3768ZM125.979 89.0081C125.115 89.2927 124.229 89.5675 123.325 89.8348C121.325 83.5302 118.627 76.8267 115.325 69.9001C118.476 63.1388 121.071 56.5207 123.014 50.2573C124.631 50.7232 126.199 51.2143 127.711 51.7324C142.332 56.7456 151.25 64.1566 151.25 69.8675C151.25 75.9502 141.619 83.8468 125.979 89.0081V89.0081ZM119.49 101.814C121.071 109.768 121.296 116.959 120.249 122.582C119.309 127.634 117.416 131.001 115.076 132.351C110.097 135.221 99.4487 131.49 87.9646 121.648C86.6071 120.482 85.2823 119.279 83.9918 118.04C88.4442 113.191 92.8935 107.554 97.236 101.293C104.874 100.618 112.091 99.5139 118.635 98.0074C118.95 99.2694 119.235 100.539 119.49 101.814V101.814ZM53.8657 131.854C49.001 133.565 45.1263 133.614 42.7841 132.269C37.8003 129.407 35.7284 118.356 38.5545 103.533C38.8904 101.781 39.2751 100.039 39.708 98.3086C46.1798 99.7346 53.3435 100.76 60.9997 101.378C65.3719 107.505 69.9496 113.136 74.563 118.066C73.5826 119.011 72.579 119.932 71.553 120.827C65.4225 126.164 59.2796 129.95 53.8657 131.854V131.854ZM31.0754 88.9706C23.371 86.3478 17.0085 82.9395 12.6474 79.2202C8.72827 75.8783 6.75018 72.5597 6.75018 69.8675C6.75018 64.1376 15.3272 56.8292 29.633 51.8621C31.3692 51.2598 33.1862 50.6912 35.0717 50.1577C37.0491 56.5625 39.6426 63.2592 42.7723 70.031C39.6018 76.9029 36.9714 83.7066 34.9748 90.187C33.6652 89.8134 32.365 89.4078 31.0754 88.9706V88.9706ZM38.7149 37.1791C35.7456 22.0663 37.7176 10.6662 42.6804 7.80489C47.966 4.75739 59.6543 9.10245 71.9739 19.9967C72.7773 20.7088 73.5676 21.4352 74.3446 22.1757C69.7539 27.085 65.2182 32.6742 60.8849 38.7643C53.454 39.4502 46.3409 40.5517 39.8012 42.0275C39.3983 40.4209 39.0361 38.8044 38.7149 37.1797V37.1791ZM106.869 53.9397C105.324 51.2825 103.722 48.6587 102.064 46.0702C107.105 46.7051 111.936 47.5478 116.471 48.578C115.11 52.9249 113.413 57.4691 111.415 62.1283C109.954 59.3689 108.439 56.6388 106.869 53.9397V53.9397ZM79.0759 26.9799C82.189 30.3391 85.307 34.0891 88.3738 38.1582C82.1526 37.8656 75.921 37.8644 69.6996 38.1545C72.7695 34.1229 75.9141 30.3778 79.0759 26.9799ZM51.1044 53.9858C49.5542 56.6632 48.067 59.3762 46.6439 62.1227C44.6788 57.4802 42.997 52.9151 41.6237 48.5067C46.1317 47.5023 50.939 46.6811 55.948 46.0579C54.2714 48.6622 52.6564 51.3054 51.1044 53.9852V53.9858ZM56.0919 94.1553C50.9167 93.58 46.0373 92.8012 41.5305 91.8239C42.9254 87.3368 44.6443 82.6746 46.652 77.9325C48.0807 80.681 49.574 83.3957 51.1309 86.0743C52.7319 88.828 54.3897 91.5252 56.0919 94.1553ZM79.2623 113.228C76.0628 109.791 72.8719 105.988 69.7558 101.898C72.7812 102.016 75.8653 102.076 79 102.076C82.2205 102.076 85.4039 102.005 88.5374 101.866C85.4607 106.029 82.3544 109.838 79.2623 113.228ZM111.478 77.6903C113.59 82.4847 115.37 87.1223 116.784 91.5325C112.203 92.5738 107.257 93.4122 102.045 94.0348C103.715 91.3983 105.332 88.7289 106.896 86.0282C108.485 83.2831 110.013 80.5031 111.478 77.6903V77.6903ZM101.049 82.6697C98.6557 86.8103 96.1278 90.8723 93.4693 94.8493C88.6538 95.1889 83.8276 95.3577 79 95.3551C74.0829 95.3551 69.3003 95.2027 64.6948 94.9052C61.967 90.9374 59.3909 86.8683 56.972 82.7066H56.9726C54.565 78.5669 52.3163 74.3376 50.231 70.0279C52.3109 65.7172 54.5529 61.4859 56.9522 57.3431L56.9516 57.3437C59.35 53.1998 61.9055 49.1481 64.6127 45.1973C69.3114 44.8433 74.1298 44.6589 78.9994 44.6589H79C83.8918 44.6589 88.7164 44.8451 93.4138 45.2016C96.0937 49.1465 98.6329 53.1842 101.027 57.3074C103.434 61.4412 105.706 65.6518 107.838 69.9326C105.728 74.2572 103.463 78.5056 101.049 82.6697V82.6697ZM114.973 7.60451C120.263 10.6434 122.321 22.898 118.997 38.9683C118.785 39.9936 118.546 41.0379 118.287 42.097C111.731 40.5898 104.613 39.4693 97.1607 38.7729C92.8194 32.6158 88.3208 27.018 83.8048 22.172C84.9883 21.0358 86.2001 19.9291 87.4388 18.8529C99.1037 8.74348 110.006 4.75186 114.973 7.60451V7.60451ZM79 55.8163C86.792 55.8163 93.1089 62.1074 93.1089 69.8675C93.1089 77.6276 86.792 83.9187 79 83.9187C71.208 83.9187 64.8911 77.6276 64.8911 69.8675C64.8911 62.1074 71.208 55.8163 79 55.8163V55.8163Z" fill="#61DBFB"></path></svg>